<svg width="486" height="525" viewBox="0 0 486 525" fill="none" xmlns="http://www.w3.org/2000/svg">
<ellipse cx="245.189" cy="218.75" rx="218.919" ry="218.75" fill="#A3BE9E"/>
<ellipse cx="199.946" cy="325.208" rx="199.946" ry="199.792" fill="#A3BE9E" fill-opacity="0.49"/>
<ellipse cx="407.919" cy="379.896" rx="78.0811" ry="78.0208" fill="#92A485" fill-opacity="0.78"/>
<path d="M449.264 227.5C449.264 328.844 367.044 411 265.622 411C164.199 411 81.9797 328.844 81.9797 227.5C81.9797 126.156 164.199 44 265.622 44C367.044 44 449.264 126.156 449.264 227.5Z" stroke="black" stroke-width="0.5"/>
<path d="M419.824 217.292C419.824 316.887 339.024 397.625 239.351 397.625C139.679 397.625 58.8784 316.887 58.8784 217.292C58.8784 117.697 139.679 36.9584 239.351 36.9584C339.024 36.9584 419.824 117.697 419.824 217.292Z" stroke="black"/>
<path d="M419.824 242.083C419.824 343.289 337.717 425.333 236.432 425.333C135.148 425.333 53.0405 343.289 53.0405 242.083C53.0405 140.878 135.148 58.8334 236.432 58.8334C337.717 58.8334 419.824 140.878 419.824 242.083Z" stroke="black" stroke-opacity="0.6"/>
<path d="M396.473 335.417C396.473 348.832 385.589 359.708 372.162 359.708C358.735 359.708 347.851 348.832 347.851 335.417C347.851 322.001 358.735 311.125 372.162 311.125C385.589 311.125 396.473 322.001 396.473 335.417Z" stroke="black" stroke-opacity="0.6"/>
<path d="M226.676 398.125C226.676 406.432 219.936 413.167 211.622 413.167C203.307 413.167 196.568 406.432 196.568 398.125C196.568 389.818 203.307 383.083 211.622 383.083C219.936 383.083 226.676 389.818 226.676 398.125Z" stroke="black" stroke-opacity="0.6" stroke-width="2"/>
<path d="M436.338 226.771C436.338 331.053 352.06 415.583 248.108 415.583C144.156 415.583 59.8784 331.053 59.8784 226.771C59.8784 122.488 144.156 37.9584 248.108 37.9584C352.06 37.9584 436.338 122.488 436.338 226.771Z" stroke="black" stroke-opacity="0.6" stroke-width="3"/>
<path d="M450.473 245C450.473 350.221 362.824 435.542 254.676 435.542C146.527 435.542 58.8784 350.221 58.8784 245C58.8784 139.779 146.527 54.4584 254.676 54.4584C362.824 54.4584 450.473 139.779 450.473 245Z" stroke="black" stroke-opacity="0.6"/>
<ellipse cx="284.595" cy="405.417" rx="5.83783" ry="5.83333" fill="black" fill-opacity="0.45"/>
<ellipse cx="408.649" cy="341.25" rx="5.83786" ry="5.83334" fill="black" fill-opacity="0.6"/>
<ellipse cx="138.649" cy="387.917" rx="5.83783" ry="5.83333" fill="black" fill-opacity="0.6"/>
<ellipse cx="414.487" cy="272.708" rx="5.83784" ry="5.83333" fill="black" fill-opacity="0.6"/>
<ellipse cx="232.054" cy="421.458" rx="4.37838" ry="4.37498" fill="black" fill-opacity="0.6"/>
<ellipse cx="402.811" cy="125.417" rx="4.37837" ry="4.375" fill="black" fill-opacity="0.6"/>
<ellipse cx="376.541" cy="389.375" rx="4.37837" ry="4.375" fill="black" fill-opacity="0.61"/>
<ellipse cx="75.8919" cy="297.5" rx="4.37838" ry="4.375" fill="black" fill-opacity="0.6"/>
</svg>
