<svg width="278" height="218" viewBox="0 0 278 218" fill="none" xmlns="http://www.w3.org/2000/svg">
<ellipse cx="173.574" cy="92.7159" rx="81.0811" ry="81.25" transform="rotate(-7.884 173.574 92.7159)" fill="#A3BE9E"/>
<ellipse cx="162.4" cy="134.182" rx="74.0541" ry="74.2084" transform="rotate(-7.884 162.4 134.182)" fill="#A3BE9E" fill-opacity="0.49"/>
<ellipse cx="241.485" cy="143.737" rx="28.9189" ry="28.9792" transform="rotate(-7.884 241.485 143.737)" fill="#92A485" fill-opacity="0.78"/>
<path d="M248.733 85.5892C253.884 122.79 227.966 157.114 190.843 162.254C153.721 167.395 119.451 141.406 114.299 104.205C109.148 67.0043 135.066 32.6805 172.189 27.5399C209.311 22.3993 243.581 48.3883 248.733 85.5892Z" stroke="black" stroke-width="0.5"/>
<path d="M237.256 83.3505C242.307 119.822 216.896 153.473 180.503 158.512C144.109 163.552 110.51 138.073 105.46 101.601C100.409 65.1293 125.82 31.479 162.214 26.4394C198.607 21.3997 232.206 46.8786 237.256 83.3505Z" stroke="black"/>
<path d="M238.519 92.4718C243.652 129.536 217.828 163.734 180.843 168.855C143.858 173.977 109.714 148.084 104.581 111.019C99.4487 73.9546 125.272 39.7574 162.257 34.6359C199.242 29.5143 233.387 55.4072 238.519 92.4718Z" stroke="black" stroke-opacity="0.6"/>
<path d="M234.708 127.997C235.368 132.762 232.048 137.157 227.295 137.815C222.543 138.473 218.153 135.146 217.494 130.381C216.834 125.616 220.154 121.221 224.906 120.563C229.659 119.905 234.048 123.232 234.708 127.997Z" stroke="black" stroke-opacity="0.6"/>
<path d="M175.297 159.738C175.673 162.452 173.782 164.953 171.078 165.328C168.374 165.702 165.875 163.809 165.499 161.095C165.123 158.38 167.014 155.879 169.718 155.505C172.422 155.131 174.921 157.024 175.297 159.738Z" stroke="black" stroke-opacity="0.6" stroke-width="2"/>
<path d="M243.174 86.0855C248.416 123.944 222.157 158.844 184.544 164.052C146.93 169.261 112.176 142.81 106.933 104.952C101.691 67.0933 127.95 32.1937 165.563 26.9851C203.177 21.7765 237.931 48.2272 243.174 86.0855Z" stroke="black" stroke-opacity="0.6" stroke-width="3"/>
<path d="M249.912 91.9879C255.248 130.522 227.567 166.213 188.056 171.684C148.546 177.155 112.208 150.33 106.872 111.796C101.536 73.2617 129.216 37.5708 168.727 32.0994C208.238 26.6281 244.576 53.4539 249.912 91.9879Z" stroke="black" stroke-opacity="0.6"/>
<ellipse cx="197.541" cy="159.392" rx="2.16216" ry="2.16665" transform="rotate(-7.884 197.541 159.392)" fill="black" fill-opacity="0.45"/>
<ellipse cx="239.784" cy="129.482" rx="2.16217" ry="2.16667" transform="rotate(-7.884 239.784 129.482)" fill="black" fill-opacity="0.6"/>
<ellipse cx="143.106" cy="160.368" rx="2.16216" ry="2.16667" transform="rotate(-7.884 143.106 160.368)" fill="black" fill-opacity="0.6"/>
<ellipse cx="238.433" cy="103.967" rx="2.16216" ry="2.16666" transform="rotate(-7.884 238.433 103.967)" fill="black" fill-opacity="0.6"/>
<ellipse cx="179.083" cy="167.963" rx="1.62162" ry="1.625" transform="rotate(-7.884 179.083 167.963)" fill="black" fill-opacity="0.6"/>
<ellipse cx="226.646" cy="50.3693" rx="1.62162" ry="1.625" transform="rotate(-7.884 226.646 50.3693)" fill="black" fill-opacity="0.6"/>
<ellipse cx="230.456" cy="148.819" rx="1.62162" ry="1.625" transform="rotate(-7.884 230.456 148.819)" fill="black" fill-opacity="0.61"/>
<ellipse cx="115.476" cy="130.29" rx="1.62162" ry="1.625" transform="rotate(-7.884 115.476 130.29)" fill="black" fill-opacity="0.6"/>
<path d="M2.4375 63.986C2.10417 63.361 1.875 62.8194 1.75 62.361C1.625 61.9027 1.5625 61.361 1.5625 60.736C1.5625 60.5277 1.5625 60.3194 1.5625 60.111C1.60417 59.9027 1.66667 59.7152 1.75 59.5485C1.875 59.3819 2.04167 59.2569 2.25 59.1735C2.5 59.0902 2.8125 59.111 3.1875 59.236C3.4375 59.3194 3.6875 59.486 3.9375 59.736C4.1875 59.9444 4.41667 60.236 4.625 60.611C4.875 60.9444 5.0625 61.2777 5.1875 61.611C5.35417 61.9444 5.47917 62.2152 5.5625 62.4235C6.52083 61.6735 7.5625 60.9235 8.6875 60.1735C9.8125 59.3819 11 58.6944 12.25 58.111C13.5417 57.486 14.8333 56.986 16.125 56.611C17.4583 56.236 18.7292 56.0485 19.9375 56.0485C20.3542 56.0485 20.8542 56.0902 21.4375 56.1735C22.0208 56.2569 22.5625 56.4027 23.0625 56.611C23.6042 56.8194 24.0417 57.111 24.375 57.486C24.75 57.8194 24.9375 58.2569 24.9375 58.7985C25.0625 59.7985 24.9375 60.8194 24.5625 61.861C24.2292 62.861 23.75 63.8402 23.125 64.7985C22.5417 65.7569 21.8542 66.6944 21.0625 67.611C20.3125 68.5277 19.5417 69.4027 18.75 70.236C18 71.0694 17.2917 71.8402 16.625 72.5485C16 73.2569 15.5208 73.8819 15.1875 74.4235C16.8958 73.2985 18.7292 72.486 20.6875 71.986C22.6875 71.4444 24.6875 71.1735 26.6875 71.1735C27.3125 71.1735 27.9792 71.2152 28.6875 71.2985C29.4375 71.3402 30.125 71.486 30.75 71.736C31.375 71.986 31.8958 72.3402 32.3125 72.7985C32.7292 73.2569 32.9375 73.9027 32.9375 74.736C32.9375 75.5694 32.5417 76.736 31.75 78.236C31 79.6944 30 81.3194 28.75 83.111C27.5417 84.861 26.1875 86.6527 24.6875 88.486C23.2292 90.2777 21.8125 91.9235 20.4375 93.4235C19.0625 94.8819 17.8125 96.0902 16.6875 97.0485C15.6042 97.9652 14.8333 98.4235 14.375 98.4235L12.75 97.6735C12.9583 96.8819 13.4792 95.9444 14.3125 94.861C15.1458 93.7777 16.125 92.6527 17.25 91.486C18.4167 90.3194 19.6458 89.0902 20.9375 87.7985C22.2708 86.5069 23.5208 85.2569 24.6875 84.0485C25.8542 82.8402 26.875 81.6735 27.75 80.5485C28.625 79.3819 29.1875 78.3402 29.4375 77.4235C29.7292 76.4652 29.625 75.6735 29.125 75.0485C28.625 74.3819 27.6042 73.8819 26.0625 73.5485C24.4375 73.5485 22.7292 73.8402 20.9375 74.4235C19.1458 74.9652 17.4375 75.7569 15.8125 76.7985C14.1875 77.8402 12.7292 79.0902 11.4375 80.5485C10.1875 81.9652 9.27083 83.5694 8.6875 85.361C8.6875 86.5277 8.77083 87.6735 8.9375 88.7985C9.14583 89.9235 9.35417 91.0485 9.5625 92.1735C9.77083 93.2569 9.95833 94.361 10.125 95.486C10.3333 96.611 10.4375 97.736 10.4375 98.861C10.4375 99.6944 10.375 100.382 10.25 100.924C10.125 101.465 9.60417 101.736 8.6875 101.736C8.60417 101.736 8.45833 101.736 8.25 101.736C8.08333 101.694 8 101.653 8 101.611L2.4375 63.986ZM6.4375 67.9235C6.4375 69.4652 6.54167 71.111 6.75 72.861C6.95833 74.5694 7.375 76.1527 8 77.611C8.625 77.0694 9.39583 76.361 10.3125 75.486C11.2708 74.5694 12.25 73.5902 13.25 72.5485C14.2917 71.5069 15.2917 70.4027 16.25 69.236C17.25 68.0694 18.1458 66.9444 18.9375 65.861C19.7708 64.7777 20.4167 63.7777 20.875 62.861C21.375 61.9027 21.625 61.111 21.625 60.486C21.625 59.986 21.4583 59.6527 21.125 59.486C20.8333 59.3194 20.4792 59.236 20.0625 59.236C19.0625 59.236 17.7708 59.4444 16.1875 59.861C14.6458 60.2777 13.1458 60.861 11.6875 61.611C10.2708 62.361 9.04167 63.2777 8 64.361C6.95833 65.4027 6.4375 66.5902 6.4375 67.9235ZM35.9375 93.861C35.6458 91.9444 35.5 90.0902 35.5 88.2985C35.5 86.4652 35.6042 84.611 35.8125 82.736C36.0625 80.861 36.3958 78.9235 36.8125 76.9235C37.2708 74.8819 37.7917 72.6944 38.375 70.361C38.375 69.9027 38.5 69.486 38.75 69.111C39 68.6944 39.3333 68.361 39.75 68.111C40.1667 67.8194 40.6042 67.5902 41.0625 67.4235C41.5208 67.2569 41.9583 67.1735 42.375 67.1735C43.2917 67.1735 44.125 67.4652 44.875 68.0485C45.625 68.6319 46.2917 69.3402 46.875 70.1735C47.5 71.0069 48.0208 71.9027 48.4375 72.861C48.8958 73.7777 49.2708 74.5694 49.5625 75.236C49.8958 76.6944 50.125 78.361 50.25 80.236C50.4167 82.0694 50.4375 83.9444 50.3125 85.861C50.1875 87.7777 49.8958 89.6735 49.4375 91.5485C48.9792 93.3819 48.3333 95.0694 47.5 96.611C46.6667 98.1527 45.5833 99.4444 44.25 100.486C42.9583 101.528 41.4167 102.174 39.625 102.424C38.6667 102.424 37.9375 102.111 37.4375 101.486C36.9375 100.819 36.5625 100.028 36.3125 99.111C36.1042 98.1527 35.9792 97.1944 35.9375 96.236C35.9375 95.2777 35.9375 94.486 35.9375 93.861ZM39.125 93.6735C39.125 94.0902 39.125 94.486 39.125 94.861C39.1667 95.236 39.2083 95.611 39.25 95.986C39.3333 96.3194 39.4167 96.6944 39.5 97.111C39.625 97.486 39.7708 97.9235 39.9375 98.4235H40.3125C41.3125 98.4235 42.1667 98.0902 42.875 97.4235C43.5833 96.7569 44.1875 95.9027 44.6875 94.861C45.1875 93.7777 45.6042 92.5902 45.9375 91.2985C46.2708 89.9652 46.5208 88.6735 46.6875 87.4235C46.8958 86.1319 47.0208 84.9444 47.0625 83.861C47.1458 82.736 47.1875 81.8402 47.1875 81.1735V79.9235C47.1875 79.3819 47.1667 78.7777 47.125 78.111C47.0833 77.4027 47 76.6944 46.875 75.986C46.7917 75.236 46.6458 74.5694 46.4375 73.986C46.2292 73.361 45.9583 72.861 45.625 72.486C45.2917 72.111 44.8542 71.9235 44.3125 71.9235C43.3958 71.6319 42.6042 71.6944 41.9375 72.111C41.3125 72.5277 40.7917 73.236 40.375 74.236C40 75.1944 39.7083 76.3819 39.5 77.7985C39.2917 79.2152 39.1667 80.7777 39.125 82.486C39.0833 84.1944 39.0625 86.0069 39.0625 87.9235C39.1042 89.8402 39.125 91.7569 39.125 93.6735ZM53 93.861C52.7083 91.9444 52.5625 90.0902 52.5625 88.2985C52.5625 86.4652 52.6667 84.611 52.875 82.736C53.125 80.861 53.4583 78.9235 53.875 76.9235C54.3333 74.8819 54.8542 72.6944 55.4375 70.361C55.4375 69.9027 55.5625 69.486 55.8125 69.111C56.0625 68.6944 56.3958 68.361 56.8125 68.111C57.2292 67.8194 57.6667 67.5902 58.125 67.4235C58.5833 67.2569 59.0208 67.1735 59.4375 67.1735C60.3542 67.1735 61.1875 67.4652 61.9375 68.0485C62.6875 68.6319 63.3542 69.3402 63.9375 70.1735C64.5625 71.0069 65.0833 71.9027 65.5 72.861C65.9583 73.7777 66.3333 74.5694 66.625 75.236C66.9583 76.6944 67.1875 78.361 67.3125 80.236C67.4792 82.0694 67.5 83.9444 67.375 85.861C67.25 87.7777 66.9583 89.6735 66.5 91.5485C66.0417 93.3819 65.3958 95.0694 64.5625 96.611C63.7292 98.1527 62.6458 99.4444 61.3125 100.486C60.0208 101.528 58.4792 102.174 56.6875 102.424C55.7292 102.424 55 102.111 54.5 101.486C54 100.819 53.625 100.028 53.375 99.111C53.1667 98.1527 53.0417 97.1944 53 96.236C53 95.2777 53 94.486 53 93.861ZM56.1875 93.6735C56.1875 94.0902 56.1875 94.486 56.1875 94.861C56.2292 95.236 56.2708 95.611 56.3125 95.986C56.3958 96.3194 56.4792 96.6944 56.5625 97.111C56.6875 97.486 56.8333 97.9235 57 98.4235H57.375C58.375 98.4235 59.2292 98.0902 59.9375 97.4235C60.6458 96.7569 61.25 95.9027 61.75 94.861C62.25 93.7777 62.6667 92.5902 63 91.2985C63.3333 89.9652 63.5833 88.6735 63.75 87.4235C63.9583 86.1319 64.0833 84.9444 64.125 83.861C64.2083 82.736 64.25 81.8402 64.25 81.1735V79.9235C64.25 79.3819 64.2292 78.7777 64.1875 78.111C64.1458 77.4027 64.0625 76.6944 63.9375 75.986C63.8542 75.236 63.7083 74.5694 63.5 73.986C63.2917 73.361 63.0208 72.861 62.6875 72.486C62.3542 72.111 61.9167 71.9235 61.375 71.9235C60.4583 71.6319 59.6667 71.6944 59 72.111C58.375 72.5277 57.8542 73.236 57.4375 74.236C57.0625 75.1944 56.7708 76.3819 56.5625 77.7985C56.3542 79.2152 56.2292 80.7777 56.1875 82.486C56.1458 84.1944 56.125 86.0069 56.125 87.9235C56.1667 89.8402 56.1875 91.7569 56.1875 93.6735ZM71.9375 54.4235C72.8125 53.5902 73.5 53.2569 74 53.4235C74.5417 53.5902 74.9375 54.1527 75.1875 55.111C75.4375 56.0694 75.5833 57.3194 75.625 58.861C75.6667 60.4027 75.6458 62.1527 75.5625 64.111C75.5208 66.0277 75.4167 68.0694 75.25 70.236C75.0833 72.361 74.9375 74.4652 74.8125 76.5485C74.6875 78.5902 74.6042 80.5485 74.5625 82.4235C74.5208 84.2985 74.5833 85.9235 74.75 87.2985H74.9375C75.0208 87.2985 75.0833 87.2777 75.125 87.236C77.2917 85.0694 79.2292 82.7777 80.9375 80.361C82.6458 77.9444 84.1875 75.6735 85.5625 73.5485C86.9375 71.3819 88.1458 69.5069 89.1875 67.9235C90.2708 66.3402 91.2708 65.2569 92.1875 64.6735C92.8125 64.6735 93.3333 64.7777 93.75 64.986C94.2083 65.1944 94.4375 65.6735 94.4375 66.4235C94.4375 66.5069 94.4167 66.6527 94.375 66.861C94.375 67.0277 94.375 67.1527 94.375 67.236C93.3333 69.361 92.1875 71.5069 90.9375 73.6735C89.6875 75.7985 88.3333 77.861 86.875 79.861C85.4167 81.861 83.8333 83.7569 82.125 85.5485C80.4583 87.3402 78.6458 88.9652 76.6875 90.4235C76.6875 90.4652 76.6667 90.5485 76.625 90.6735C76.625 90.7569 76.625 90.8194 76.625 90.861C76.625 91.2777 76.9583 91.736 77.625 92.236C78.3333 92.736 79.2083 93.2152 80.25 93.6735C81.3333 94.1319 82.5208 94.5902 83.8125 95.0485C85.1458 95.5069 86.4375 95.9027 87.6875 96.236C88.9792 96.5694 90.1667 96.8402 91.25 97.0485C92.375 97.2569 93.25 97.361 93.875 97.361C93.875 97.5277 93.875 97.8402 93.875 98.2985C93.9167 98.7569 93.8958 99.236 93.8125 99.736C93.7292 100.236 93.5833 100.694 93.375 101.111C93.1667 101.486 92.8333 101.674 92.375 101.674H92.125C92.0417 101.674 91.9792 101.653 91.9375 101.611L74.0625 94.4235C74.0208 96.8819 73.8542 98.8819 73.5625 100.424C73.2708 101.924 72.9167 103.028 72.5 103.736C72.125 104.486 71.7083 104.84 71.25 104.799C70.8333 104.757 70.4583 104.424 70.125 103.799L71.9375 54.4235Z" fill="#677E61"/>
<path d="M97.5 93.861C97.2083 91.9444 97.0625 90.0902 97.0625 88.2985C97.0625 86.4652 97.1667 84.611 97.375 82.736C97.625 80.861 97.9583 78.9235 98.375 76.9235C98.8333 74.8819 99.3542 72.6944 99.9375 70.361C99.9375 69.9027 100.062 69.486 100.312 69.111C100.562 68.6944 100.896 68.361 101.312 68.111C101.729 67.8194 102.167 67.5902 102.625 67.4235C103.083 67.2569 103.521 67.1735 103.938 67.1735C104.854 67.1735 105.688 67.4652 106.438 68.0485C107.188 68.6319 107.854 69.3402 108.438 70.1735C109.062 71.0069 109.583 71.9027 110 72.861C110.458 73.7777 110.833 74.5694 111.125 75.236C111.458 76.6944 111.688 78.361 111.812 80.236C111.979 82.0694 112 83.9444 111.875 85.861C111.75 87.7777 111.458 89.6735 111 91.5485C110.542 93.3819 109.896 95.0694 109.062 96.611C108.229 98.1527 107.146 99.4444 105.812 100.486C104.521 101.528 102.979 102.174 101.188 102.424C100.229 102.424 99.5 102.111 99 101.486C98.5 100.819 98.125 100.028 97.875 99.111C97.6667 98.1527 97.5417 97.1944 97.5 96.236C97.5 95.2777 97.5 94.486 97.5 93.861ZM100.688 93.6735C100.688 94.0902 100.688 94.486 100.688 94.861C100.729 95.236 100.771 95.611 100.812 95.986C100.896 96.3194 100.979 96.6944 101.062 97.111C101.188 97.486 101.333 97.9235 101.5 98.4235H101.875C102.875 98.4235 103.729 98.0902 104.438 97.4235C105.146 96.7569 105.75 95.9027 106.25 94.861C106.75 93.7777 107.167 92.5902 107.5 91.2985C107.833 89.9652 108.083 88.6735 108.25 87.4235C108.458 86.1319 108.583 84.9444 108.625 83.861C108.708 82.736 108.75 81.8402 108.75 81.1735V79.9235C108.75 79.3819 108.729 78.7777 108.688 78.111C108.646 77.4027 108.562 76.6944 108.438 75.986C108.354 75.236 108.208 74.5694 108 73.986C107.792 73.361 107.521 72.861 107.188 72.486C106.854 72.111 106.417 71.9235 105.875 71.9235C104.958 71.6319 104.167 71.6944 103.5 72.111C102.875 72.5277 102.354 73.236 101.938 74.236C101.562 75.1944 101.271 76.3819 101.062 77.7985C100.854 79.2152 100.729 80.7777 100.688 82.486C100.646 84.1944 100.625 86.0069 100.625 87.9235C100.667 89.8402 100.688 91.7569 100.688 93.6735ZM114.812 118.861C115.271 114.486 115.521 110.319 115.562 106.361C115.646 102.444 115.625 98.5694 115.5 94.736C115.417 90.9027 115.271 87.0277 115.062 83.111C114.854 79.1944 114.729 75.0485 114.688 70.6735C114.812 70.0902 114.958 69.6527 115.125 69.361C115.333 69.0277 115.854 68.9444 116.688 69.111C117.562 69.3194 118.083 69.8194 118.25 70.611C118.417 71.361 118.458 72.2152 118.375 73.1735C118.292 74.1319 118.167 75.0902 118 76.0485C117.833 77.0069 117.833 77.7777 118 78.361C119.333 77.4027 120.75 76.4027 122.25 75.361C123.75 74.3194 125.312 73.4027 126.938 72.611C128.562 71.7777 130.25 71.1735 132 70.7985C133.75 70.3819 135.5 70.361 137.25 70.736C139.417 71.236 140.917 71.986 141.75 72.986C142.625 73.9444 142.958 75.0694 142.75 76.361C142.583 77.611 142 79.0069 141 80.5485C140 82.0485 138.771 83.5694 137.312 85.111C135.854 86.6527 134.229 88.1735 132.438 89.6735C130.646 91.1735 128.896 92.5694 127.188 93.861C125.479 95.111 123.875 96.2152 122.375 97.1735C120.917 98.1319 119.75 98.8402 118.875 99.2985C118.833 99.7985 118.771 100.59 118.688 101.674C118.646 102.715 118.583 103.903 118.5 105.236C118.458 106.569 118.396 107.965 118.312 109.424C118.271 110.882 118.208 112.278 118.125 113.611C118.083 114.944 118.021 116.132 117.938 117.174C117.896 118.215 117.875 118.986 117.875 119.486C117.792 119.528 117.646 119.569 117.438 119.611C117.229 119.653 116.979 119.674 116.688 119.674C116.396 119.715 116.125 119.736 115.875 119.736C115.625 119.778 115.458 119.778 115.375 119.736C115.25 119.736 115.125 119.611 115 119.361C114.875 119.153 114.812 118.986 114.812 118.861ZM118.312 84.611C118.188 85.1944 118.146 85.9235 118.188 86.7985C118.271 87.6319 118.354 88.5277 118.438 89.486C118.562 90.4027 118.688 91.2985 118.812 92.1735C118.938 93.0485 119.021 93.7985 119.062 94.4235C120.646 93.2152 122.479 91.986 124.562 90.736C126.688 89.486 128.729 88.1319 130.688 86.6735C132.688 85.2152 134.458 83.5902 136 81.7985C137.542 80.0069 138.562 77.986 139.062 75.736C139.229 74.861 139.146 74.2777 138.812 73.986C138.521 73.6527 138 73.4235 137.25 73.2985C135.667 72.9652 133.854 73.0902 131.812 73.6735C129.771 74.2152 127.792 75.0277 125.875 76.111C124 77.1944 122.354 78.486 120.938 79.986C119.521 81.486 118.646 83.0277 118.312 84.611ZM147.312 88.9235C147.104 88.9652 146.792 89.0277 146.375 89.111C145.958 89.1944 145.521 89.2152 145.062 89.1735C144.604 89.1319 144.208 89.0069 143.875 88.7985C143.5 88.5902 143.312 88.236 143.312 87.736C143.312 87.4444 143.375 87.236 143.5 87.111C143.625 86.986 143.833 86.7985 144.125 86.5485C145.042 85.7985 145.812 84.8402 146.438 83.6735C147.104 82.4652 147.708 81.1944 148.25 79.861C148.792 78.486 149.354 77.1319 149.938 75.7985C150.562 74.4235 151.271 73.1944 152.062 72.111C152.854 71.0277 153.833 70.1527 155 69.486C156.167 68.8194 157.604 68.5069 159.312 68.5485C160.021 68.5485 160.812 68.7152 161.688 69.0485C162.562 69.3819 163.375 69.8402 164.125 70.4235C164.875 70.9652 165.5 71.6319 166 72.4235C166.5 73.2152 166.75 74.0902 166.75 75.0485C166.958 75.3819 166.75 75.861 166.125 76.486C165.542 77.111 164.729 77.7985 163.688 78.5485C162.646 79.2569 161.458 80.0069 160.125 80.7985C158.833 81.5485 157.583 82.2569 156.375 82.9235C155.167 83.5902 154.104 84.1735 153.188 84.6735C152.271 85.1735 151.667 85.5485 151.375 85.7985C151.167 86.2152 151 86.6944 150.875 87.236C150.75 87.7777 150.646 88.2985 150.562 88.7985C150.521 89.2569 150.479 89.6944 150.438 90.111C150.438 90.486 150.438 90.7777 150.438 90.986C150.438 91.7777 150.396 92.6527 150.312 93.611C150.271 94.5694 150.312 95.486 150.438 96.361C150.604 97.1944 150.958 97.9027 151.5 98.486C152.042 99.0277 152.958 99.2985 154.25 99.2985C155.625 99.2985 156.917 98.9652 158.125 98.2985C159.333 97.5902 160.458 96.736 161.5 95.736C162.542 94.736 163.479 93.6527 164.312 92.486C165.188 91.3194 165.958 90.236 166.625 89.236C167.333 88.1944 167.958 87.3402 168.5 86.6735C169.042 86.0069 169.5 85.6735 169.875 85.6735C170.292 85.6735 170.729 85.7569 171.188 85.9235C171.688 86.0485 171.938 86.3819 171.938 86.9235C171.938 87.6735 171.625 88.5694 171 89.611C170.417 90.6527 169.625 91.7569 168.625 92.9235C167.667 94.0902 166.542 95.2569 165.25 96.4235C164 97.5485 162.729 98.5694 161.438 99.486C160.146 100.361 158.875 101.09 157.625 101.674C156.375 102.215 155.271 102.486 154.312 102.486C152.438 102.486 151.021 102.028 150.062 101.111C149.104 100.194 148.417 99.0485 148 97.6735C147.625 96.2985 147.417 94.8402 147.375 93.2985C147.375 91.7152 147.354 90.2569 147.312 88.9235ZM158.812 72.0485C158.104 72.0485 157.354 72.4027 156.562 73.111C155.771 73.7777 155.021 74.611 154.312 75.611C153.646 76.5694 153.083 77.5694 152.625 78.611C152.208 79.611 152 80.4444 152 81.111C152.625 81.111 153.521 80.8819 154.688 80.4235C155.896 79.9235 157.083 79.3194 158.25 78.611C159.417 77.9027 160.438 77.1527 161.312 76.361C162.188 75.5694 162.625 74.8194 162.625 74.111C162.625 73.736 162.479 73.4235 162.188 73.1735C161.896 72.9235 161.542 72.7152 161.125 72.5485C160.75 72.3819 160.354 72.2569 159.938 72.1735C159.521 72.0902 159.146 72.0485 158.812 72.0485ZM188.75 90.986C188.333 91.9444 187.792 93.0485 187.125 94.2985C186.5 95.5485 185.75 96.736 184.875 97.861C184.042 98.986 183.062 99.9444 181.938 100.736C180.812 101.528 179.562 101.924 178.188 101.924C177.562 101.924 177.062 101.861 176.688 101.736C176.354 101.569 176.042 101.34 175.75 101.049C175.5 100.757 175.25 100.403 175 99.986C174.792 99.5694 174.521 99.111 174.188 98.611C174.062 96.5694 173.979 94.3819 173.938 92.0485C173.938 89.6735 174.062 87.3194 174.312 84.986C174.562 82.611 174.979 80.3819 175.562 78.2985C176.188 76.2152 177.042 74.4444 178.125 72.986C179.25 71.5277 180.646 70.486 182.312 69.861C183.979 69.236 186 69.1944 188.375 69.736C188.5 68.5694 188.521 67.0069 188.438 65.0485C188.354 63.0902 188.229 61.0277 188.062 58.861C187.896 56.6944 187.729 54.611 187.562 52.611C187.396 50.5694 187.292 48.9027 187.25 47.611C187.25 47.236 187.417 46.9652 187.75 46.7985C188.125 46.5902 188.521 46.4652 188.938 46.4235C189.354 46.3819 189.75 46.3819 190.125 46.4235C190.542 46.4652 190.812 46.5277 190.938 46.611C190.854 51.736 190.833 56.7777 190.875 61.736C190.917 66.6527 190.958 71.5694 191 76.486C191.083 81.361 191.167 86.2152 191.25 91.0485C191.333 95.8819 191.375 100.715 191.375 105.549C191.375 106.007 191.333 106.486 191.25 106.986C191.208 107.528 190.854 107.799 190.188 107.799C189.938 107.799 189.688 107.715 189.438 107.549C189.188 107.424 189.021 107.215 188.938 106.924L188.75 90.986ZM186.062 72.861C184.771 72.7777 183.562 73.2985 182.438 74.4235C181.354 75.5069 180.396 76.9235 179.562 78.6735C178.771 80.4235 178.125 82.361 177.625 84.486C177.125 86.5694 176.812 88.5902 176.688 90.5485C176.604 92.4652 176.729 94.1735 177.062 95.6735C177.438 97.1735 178.083 98.1944 179 98.736C179.917 98.736 180.771 98.3819 181.562 97.6735C182.354 96.9235 183.083 95.986 183.75 94.861C184.417 93.736 185 92.486 185.5 91.111C186 89.6944 186.417 88.3402 186.75 87.0485C187.125 85.7569 187.396 84.5902 187.562 83.5485C187.771 82.4652 187.875 81.6527 187.875 81.111C187.875 80.6944 187.896 80.0277 187.938 79.111C187.979 78.1944 187.958 77.2777 187.875 76.361C187.792 75.4444 187.604 74.6319 187.312 73.9235C187.062 73.2152 186.646 72.861 186.062 72.861ZM196.312 101.174C196.312 98.4652 196.25 95.611 196.125 92.611C196.042 89.611 195.938 86.5902 195.812 83.5485C195.729 80.4652 195.708 77.4444 195.75 74.486C195.792 71.5277 195.979 68.7569 196.312 66.1735C196.396 66.1319 196.583 66.111 196.875 66.111C197.208 66.0694 197.438 66.0485 197.562 66.0485C198.146 66.0485 198.604 66.1527 198.938 66.361C199.312 66.5277 199.5 66.9235 199.5 67.5485C199.5 70.0069 199.479 72.6944 199.438 75.611C199.438 78.486 199.417 81.4235 199.375 84.4235C199.375 87.3819 199.375 90.3194 199.375 93.236C199.375 96.1527 199.417 98.7985 199.5 101.174C199.542 101.882 199.396 102.34 199.062 102.549C198.771 102.799 198.396 102.924 197.938 102.924C197.438 102.924 197.021 102.799 196.688 102.549C196.354 102.34 196.229 101.882 196.312 101.174ZM194.938 56.4235C194.938 55.9235 195.104 55.5902 195.438 55.4235C195.771 55.2569 196.146 55.1735 196.562 55.1735C197.396 55.1735 197.917 55.4444 198.125 55.986C198.333 56.5277 198.438 57.1527 198.438 57.861C198.188 58.3194 197.875 58.6527 197.5 58.861C197.125 59.0277 196.729 59.0694 196.312 58.986C195.938 58.861 195.604 58.5902 195.312 58.1735C195.062 57.7569 194.938 57.1735 194.938 56.4235ZM221.562 100.799C221.354 99.7152 221.167 98.4235 221 96.9235C220.875 95.3819 220.729 93.8402 220.562 92.2985C220.396 90.7152 220.188 89.236 219.938 87.861C219.729 86.486 219.396 85.361 218.938 84.486C216.812 88.8194 214.938 92.236 213.312 94.736C211.688 97.1944 210.25 98.9652 209 100.049C207.792 101.09 206.771 101.59 205.938 101.549C205.104 101.507 204.417 101.132 203.875 100.424C203.333 99.7152 202.938 98.8194 202.688 97.736C202.479 96.611 202.333 95.5694 202.25 94.611C202.25 93.6944 202.458 92.4027 202.875 90.736C203.292 89.0694 203.854 87.2569 204.562 85.2985C205.271 83.2985 206.104 81.2777 207.062 79.236C208.062 77.1944 209.125 75.3402 210.25 73.6735C211.375 72.0069 212.542 70.6319 213.75 69.5485C214.958 68.4652 216.167 67.9235 217.375 67.9235C219.167 67.6319 220.479 68.0277 221.312 69.111C222.188 70.1527 222.354 71.9235 221.812 74.4235C221.812 77.1735 221.917 79.5277 222.125 81.486C222.375 83.4444 222.625 85.3194 222.875 87.111C223.167 88.9027 223.417 90.7777 223.625 92.736C223.875 94.6944 224 97.0485 224 99.7985C224 100.299 223.938 100.736 223.812 101.111C223.729 101.444 223.229 101.611 222.312 101.611C222.188 101.611 222.021 101.507 221.812 101.299C221.646 101.09 221.562 100.924 221.562 100.799ZM218.188 72.861C217.729 72.1944 217.104 72.1319 216.312 72.6735C215.521 73.2152 214.688 74.111 213.812 75.361C212.938 76.611 212.042 78.111 211.125 79.861C210.208 81.611 209.354 83.3819 208.562 85.1735C207.771 86.9652 207.083 88.6735 206.5 90.2985C205.917 91.8819 205.521 93.1944 205.312 94.236C205.312 95.736 205.542 96.5902 206 96.7985C206.458 96.9652 207.021 96.7152 207.688 96.0485C208.354 95.3819 209.104 94.4235 209.938 93.1735C210.812 91.9235 211.646 90.5902 212.438 89.1735C213.271 87.7569 214.042 86.3819 214.75 85.0485C215.5 83.7152 216.083 82.6319 216.5 81.7985C216.875 80.9235 217.167 80.111 217.375 79.361C217.583 78.611 217.75 77.9027 217.875 77.236C218.042 76.5277 218.125 75.8194 218.125 75.111C218.167 74.4027 218.188 73.6527 218.188 72.861Z" fill="white"/>
</svg>
